<svg width="75" height="50" viewBox="0 0 75 50" fill="none" xmlns="http://www.w3.org/2000/svg">
<g clip-path="url(#clip0_351_159)">
<path d="M18.9077 29.7455H18.0896C18.079 29.7455 18.0685 29.7429 18.0592 29.738C18.0499 29.7331 18.0421 29.7259 18.0365 29.7173C18.031 29.7087 18.0278 29.6988 18.0274 29.6887C18.027 29.6786 18.0293 29.6685 18.0341 29.6595L22.9506 20.402C22.9567 20.3905 22.9661 20.3808 22.9777 20.3741C22.9893 20.3673 23.0027 20.3638 23.0162 20.3638C23.0298 20.3638 23.0432 20.3673 23.0548 20.3741C23.0663 20.3808 23.0757 20.3905 23.0819 20.402L27.9561 29.6583C27.9608 29.6673 27.963 29.6774 27.9626 29.6875C27.9621 29.6975 27.9589 29.7073 27.9534 29.7159C27.9478 29.7245 27.94 29.7317 27.9308 29.7366C27.9216 29.7416 27.9112 29.7442 27.9006 29.7443H27.0821C27.0706 29.7443 27.0594 29.7412 27.0496 29.7355C27.0398 29.7298 27.0318 29.7217 27.0265 29.712L23.0073 22.2217L18.9629 29.712C18.9578 29.7218 18.95 29.7302 18.9403 29.7361C18.9305 29.7421 18.9193 29.7453 18.9077 29.7455Z" fill="#B58500"/>
<path d="M36.7294 29.6527L32.735 23.442V29.685C32.735 29.7007 32.7285 29.7158 32.7168 29.7269C32.7051 29.738 32.6893 29.7442 32.6728 29.7442H31.863C31.8465 29.7442 31.8307 29.738 31.8191 29.7269C31.8074 29.7158 31.8009 29.7007 31.8009 29.685V20.4485C31.8001 20.435 31.8042 20.4216 31.8126 20.4107C31.8209 20.3997 31.8329 20.3918 31.8466 20.3882C31.8603 20.3847 31.8749 20.3857 31.8879 20.3911C31.901 20.3966 31.9116 20.4061 31.9182 20.4181L36.7766 28.1068L41.5766 20.3913C41.5835 20.3802 41.5941 20.3715 41.6067 20.3666C41.6193 20.3618 41.6333 20.361 41.6464 20.3644C41.6595 20.3678 41.6711 20.3752 41.6794 20.3855C41.6877 20.3957 41.6922 20.4083 41.6922 20.4213V29.685C41.6922 29.7007 41.6857 29.7158 41.674 29.7269C41.6624 29.738 41.6465 29.7442 41.6301 29.7442H40.8203C40.8038 29.7442 40.788 29.738 40.7763 29.7269C40.7646 29.7158 40.7581 29.7007 40.7581 29.685V23.4566L36.8359 29.6511C36.8305 29.6599 36.8228 29.6673 36.8135 29.6724C36.8043 29.6776 36.7938 29.6804 36.7831 29.6805C36.7724 29.6807 36.7618 29.6782 36.7524 29.6733C36.7429 29.6685 36.735 29.6613 36.7294 29.6527Z" fill="#B58500"/>
<path d="M67.0658 20.3605V25.6226H61.3541V20.3605C61.3541 20.3448 61.3475 20.3297 61.3359 20.3186C61.3242 20.3075 61.3084 20.3013 61.2919 20.3013H60.4821C60.4656 20.3013 60.4498 20.3075 60.4381 20.3186C60.4265 20.3297 60.4199 20.3448 60.4199 20.3605V29.6854C60.4199 29.7011 60.4265 29.7161 60.4381 29.7272C60.4498 29.7383 60.4656 29.7446 60.4821 29.7446H61.2919C61.3084 29.7446 61.3242 29.7383 61.3359 29.7272C61.3475 29.7161 61.3541 29.7011 61.3541 29.6854V26.3881H67.0658V29.6854C67.0658 29.7011 67.0724 29.7161 67.084 29.7272C67.0957 29.7383 67.1115 29.7446 67.128 29.7446H67.9378C67.9543 29.7446 67.9701 29.7383 67.9818 29.7272C67.9934 29.7161 68 29.7011 68 29.6854V20.3605C68 20.3448 67.9934 20.3297 67.9818 20.3186C67.9701 20.3075 67.9543 20.3013 67.9378 20.3013H67.128C67.1115 20.3013 67.0957 20.3075 67.084 20.3186C67.0724 20.3297 67.0658 20.3448 67.0658 20.3605Z" fill="#B58500"/>
<path d="M51.5118 20.0629V20.7731C51.5119 20.7874 51.5173 20.8011 51.5271 20.8118C51.537 20.8225 51.5505 20.8295 51.5653 20.8315C53.5625 21.1006 55.1104 22.8915 55.1104 24.9823C55.1104 27.2513 53.2869 29.1677 51.0448 29.1677C48.8027 29.1677 46.9787 27.2513 46.9787 24.9823C46.9787 22.8911 48.5271 21.1006 50.5238 20.8315C50.5386 20.8295 50.5522 20.8225 50.562 20.8118C50.5718 20.8011 50.5772 20.7874 50.5773 20.7731V20.0629C50.5773 20.0546 50.5755 20.0464 50.572 20.0387C50.5685 20.0311 50.5633 20.0243 50.5568 20.0187C50.5503 20.0131 50.5426 20.0089 50.5343 20.0063C50.526 20.0037 50.5172 20.0029 50.5085 20.0038C47.9987 20.2724 46.04 22.4034 46.04 24.9842C46.04 27.7461 48.285 29.9951 51.0448 29.9951C53.8045 29.9951 56.0491 27.7481 56.0491 24.9862C56.0491 22.4034 54.0909 20.2724 51.5811 20.0038C51.5723 20.0029 51.5635 20.0037 51.5552 20.0063C51.5468 20.0089 51.5391 20.0131 51.5326 20.0187C51.5261 20.0243 51.5209 20.0311 51.5173 20.0387C51.5137 20.0463 51.5119 20.0546 51.5118 20.0629Z" fill="#B58500"/>
<path d="M12.3395 24.2884C10.9747 23.7285 10.1463 23.3237 10.1479 22.4253C10.1479 21.4216 11.0095 20.8223 12.4476 20.8223C13.1936 20.8223 13.9574 21.0085 14.3744 21.2898C14.3872 21.2982 14.403 21.3016 14.4184 21.2992C14.4339 21.2969 14.4478 21.289 14.4572 21.2772L14.9131 20.7212C14.9182 20.7151 14.922 20.708 14.9242 20.7004C14.9264 20.6928 14.927 20.6849 14.9259 20.6771C14.9248 20.6693 14.9221 20.6618 14.9179 20.655C14.9137 20.6482 14.9082 20.6423 14.9015 20.6376C14.3395 20.249 13.3868 20 12.4476 20C10.5288 20 9.28715 20.9513 9.28425 22.4238C9.28135 23.929 10.7244 24.5212 11.998 25.0436C13.5206 25.6682 14.5186 26.1689 14.5186 27.3912C14.5186 28.279 13.7407 29.1781 12.2541 29.1781C11.3473 29.1781 10.5769 28.9067 9.52089 28.2119C9.5142 28.2074 9.50665 28.2043 9.49867 28.2026C9.4907 28.2009 9.48245 28.2007 9.4744 28.2021C9.46636 28.2034 9.45868 28.2063 9.45179 28.2105C9.4449 28.2147 9.43895 28.2201 9.43427 28.2265L9.01113 28.8037C9.00169 28.8167 8.99805 28.8327 9.001 28.8482C9.00395 28.8638 9.01326 28.8776 9.02688 28.8866C10.2287 29.6757 11.167 30 12.2541 30C13.7705 30 15.3823 29.0858 15.3823 27.3912C15.3823 25.5364 13.766 24.8735 12.3395 24.2884Z" fill="#B58500"/>
</g>
<defs>
<clipPath id="clip0_351_159">
<rect width="59" height="10" fill="white" transform="translate(9 20)"/>
</clipPath>
</defs>
</svg>
