<svg width="75" height="50" viewBox="0 0 75 50" fill="none" xmlns="http://www.w3.org/2000/svg">
<g clip-path="url(#clip0_350_117)">
<path d="M29.9938 17.236C29.9472 17.2136 29.8851 17.1986 29.8308 17.2061C29.5281 17.2061 29.1091 17.3333 28.5736 17.5951C27.9295 17.9318 27.3319 18.3507 26.7887 18.837C26.0515 19.4953 25.3918 20.2284 24.8253 21.0364C23.6612 22.6747 22.5981 24.1484 21.6358 25.4651C20.8054 26.6321 19.8741 27.7318 18.8498 28.7492C19.6103 27.657 20.2699 26.4974 20.8132 25.2855C21.3874 24.0213 21.9462 22.6896 22.5049 21.2907C22.8154 20.5202 23.1646 19.7646 23.5526 19.0315C23.7156 18.7696 23.8553 18.5003 23.9639 18.216C23.9639 18.2011 23.9561 18.1786 23.9561 18.1637C23.9484 18.1562 23.9406 18.1487 23.9329 18.1487C23.9251 18.1487 23.9173 18.1412 23.9096 18.1487C23.7311 18.1487 23.4284 18.4031 23.0094 18.9043C22.5981 19.4055 22.0393 20.1312 21.3564 21.0738C20.138 22.8019 19.036 24.2981 18.0349 25.5623C17.0338 26.8341 16.056 27.8141 15.0937 28.5173C16.6225 26.8266 17.7711 25.2706 18.5393 23.8492C19.2999 22.4278 19.6801 21.1935 19.6646 20.1611C19.6491 19.1661 19.3464 18.3731 18.7334 17.7821C18.128 17.1912 17.321 16.8844 16.3199 16.877C15.2722 16.8919 14.2478 17.1537 13.3243 17.6325C12.2379 18.1936 11.2678 18.9417 10.4607 19.8394C9.83212 20.5202 9.31993 21.2832 8.93967 22.1211C8.62149 22.8093 8.443 23.5425 8.42748 24.2981C8.40419 24.9339 8.62149 25.5548 9.03279 26.0486C9.4441 26.5124 10.0184 26.8116 10.6547 26.8865C10.9031 28.4649 11.5394 29.7143 12.5405 30.6195C13.2855 31.2927 14.2168 31.7491 15.2256 31.9286C16.2345 32.1082 17.2744 32.0034 18.2212 31.6294C18.7644 31.3975 19.0438 31.203 19.0671 31.0459C19.0671 31.0085 19.036 30.9935 18.9817 30.9935C18.8265 31.0384 18.679 31.1057 18.5393 31.1955C18.2445 31.3451 17.934 31.4648 17.6159 31.5621C17.158 31.6967 16.6768 31.764 16.1957 31.764C14.8997 31.764 13.6503 31.2778 12.719 30.41C11.7645 29.5272 11.1902 28.3677 10.9807 26.9089C11.4696 26.8865 11.9507 26.7967 12.4086 26.6321C12.8742 26.46 13.3166 26.2207 13.7123 25.9214C14.566 25.293 15.2877 24.5225 15.8542 23.6472C16.3509 22.8318 16.5915 22.0837 16.5992 21.3805C16.5992 20.9017 16.4751 20.5351 16.25 20.2883C16.1258 20.1611 15.9784 20.0638 15.8077 19.9965C15.6447 19.9292 15.4584 19.8993 15.28 19.9142C14.7988 19.9142 14.2633 20.1162 13.6735 20.5127C13.0061 20.999 12.4319 21.5899 11.974 22.2632C11.5394 22.8692 11.198 23.535 10.9651 24.2382C10.7479 24.9115 10.6314 25.6072 10.6314 26.3104V26.5573C10.3598 26.5423 10.096 26.475 9.86316 26.3553C9.62259 26.2356 9.41305 26.071 9.24232 25.869C8.90086 25.4651 8.73013 24.904 8.72237 24.2083C8.72237 23.5574 8.91639 22.8467 9.28889 22.0612C9.72347 21.2009 10.2977 20.408 10.9884 19.7197C11.7179 18.9492 12.5948 18.3208 13.5571 17.8495C14.3409 17.453 15.2101 17.2286 16.1026 17.2061C17.0183 17.2061 17.709 17.453 18.1746 17.9243C18.6402 18.3956 18.8808 19.1063 18.8808 20.0115C18.8886 20.8568 18.5859 21.964 17.9573 23.3405C17.3287 24.717 16.3742 26.2431 15.0627 27.9188C14.597 28.4949 14.2323 28.9437 13.9607 29.2579C13.6891 29.5721 13.5571 29.7741 13.5494 29.8564C13.5494 29.9162 13.6037 29.9462 13.7123 29.9462C13.8443 29.9536 14.2711 29.6619 15.0006 29.0709C15.7301 28.4724 16.6846 27.5074 17.8719 26.1758C19.3309 24.4851 20.6812 22.7121 21.9151 20.8643C21.2788 22.0762 20.7123 23.3255 20.2156 24.5973C19.8121 25.6596 19.4861 26.5049 19.2378 27.1408C18.9584 27.8066 18.6247 28.4575 18.2445 29.0784C17.9573 29.5123 17.8021 29.804 17.7943 29.9686C17.7943 29.9761 17.8021 29.9836 17.8021 29.9911C17.8099 29.9985 17.8176 30.006 17.8254 30.006C17.8409 30.0135 17.8564 30.021 17.8797 30.021C18.1203 30.021 18.7877 29.3851 19.8664 28.0909C20.9528 26.8042 22.4351 24.8367 24.3519 22.2034C24.934 21.3506 25.5703 20.5351 26.2532 19.7571C26.8741 19.0614 27.6113 18.4704 28.4339 18.0066C28.7987 17.8046 29.1867 17.655 29.5902 17.5428C29.8774 17.4754 30.0171 17.4081 30.0326 17.3333C30.0326 17.3183 30.0248 17.3034 30.0171 17.2884C30.0248 17.251 30.0093 17.236 29.9938 17.236ZM11.423 23.8043C11.7567 23.0113 12.2301 22.2707 12.8121 21.6199C13.2079 21.171 13.6735 20.7895 14.1857 20.4828C14.5272 20.2733 14.9075 20.1461 15.311 20.1162C15.4274 20.1087 15.5438 20.1312 15.6602 20.1686C15.7689 20.206 15.8698 20.2733 15.9551 20.3556C16.0405 20.4454 16.1026 20.5501 16.1491 20.6698C16.1879 20.782 16.2035 20.9092 16.1957 21.0289C16.1957 21.2832 16.087 21.6498 15.8542 22.1211C15.5749 22.6672 15.2412 23.1834 14.8609 23.6697C14.3953 24.2756 13.8676 24.8442 13.2933 25.3529C12.9208 25.6895 12.5172 25.9813 12.0749 26.2207C11.7334 26.4077 11.3532 26.5124 10.9574 26.5199C10.9574 26.4526 10.9574 26.3778 10.9496 26.3104C10.9496 26.2281 10.9496 26.1533 10.9496 26.0561C10.9574 25.2781 11.1204 24.515 11.423 23.8043Z" fill="#121212"/>
<path d="M25.4141 23.4229H29.5892V24.3954H26.5393V25.8916H29.434V26.8716H26.5393V28.5174H29.7522V29.4974H25.4218V23.4229H25.4141Z" fill="#121212"/>
<path d="M35.5232 24.724C35.3913 24.5669 35.2206 24.4397 35.0266 24.3574C34.8326 24.2751 34.623 24.2377 34.4135 24.2452C33.8936 24.2452 33.3814 24.4696 33.3814 25.0232C33.3814 26.2426 36.3691 25.5469 36.3691 27.7089C36.3691 29.0106 35.2982 29.6465 34.0643 29.6465C33.2805 29.6465 32.52 29.4145 32 28.8235L32.8459 28.0306C32.9856 28.2251 33.1641 28.3897 33.3814 28.5019C33.5987 28.6141 33.8392 28.6664 34.0876 28.6664C34.6075 28.6664 35.1895 28.3897 35.1895 27.8361C35.1895 26.5045 32.2018 27.2675 32.2018 25.098C32.2018 23.8487 33.3581 23.2652 34.5221 23.2652C35.1818 23.2428 35.8337 23.4672 36.3226 23.8936L35.5232 24.724Z" fill="#121212"/>
<path d="M39.99 24.3954H38.0576V23.4229H43.0398V24.3954H41.1075V29.4899H39.99V24.3954Z" fill="#121212"/>
<path d="M48.3095 24.724C48.1776 24.5669 48.0069 24.4397 47.8206 24.3574C47.6266 24.2751 47.4171 24.2377 47.2076 24.2452C46.6954 24.2452 46.1832 24.4696 46.1832 25.0232C46.1832 26.2426 49.1709 25.5469 49.1709 27.7089C49.1709 29.0106 48.1 29.6465 46.8661 29.6465C46.0823 29.6465 45.3218 29.4145 44.8096 28.8235L45.6555 28.0306C45.7951 28.2251 45.9814 28.3897 46.1987 28.5019C46.416 28.6141 46.6566 28.6664 46.9049 28.6664C47.4171 28.6664 48.0069 28.3897 48.0069 27.8361C48.0069 26.5045 45.0191 27.2675 45.0191 25.098C45.0191 23.8487 46.1754 23.2652 47.3395 23.2652C48.0069 23.2428 48.651 23.4672 49.1477 23.8936L48.3095 24.724Z" fill="#121212"/>
<path d="M51.6826 23.4229H52.8001V29.4974H51.6826V23.4229Z" fill="#121212"/>
<path d="M55.1377 23.4229H57.621C59.274 23.4229 60.8261 24.3954 60.8261 26.4601C60.8261 28.5174 59.0024 29.4974 57.4969 29.4974H55.1455V23.4229H55.1377ZM57.0933 28.5174C58.498 28.5174 59.6543 27.9339 59.6543 26.4601C59.6543 24.9864 58.6532 24.4029 57.2873 24.4029H56.263V28.5174H57.0933Z" fill="#121212"/>
<path d="M62.8291 23.4229H67.0042V24.3954H63.9466V25.8916H66.8412V26.8716H63.9466V28.5174H67.1594V29.4974H62.8213V23.4229H62.8291Z" fill="#121212"/>
</g>
<defs>
<clipPath id="clip0_350_117">
<rect width="59" height="15" fill="white" transform="translate(8 17)"/>
</clipPath>
</defs>
</svg>
